<?xml version="1.0" encoding="UTF-8" standalone="no"?>
<!-- Created with Inkscape (http://www.inkscape.org/) -->

<svg
   xmlns:osb="http://www.openswatchbook.org/uri/2009/osb"
   xmlns:dc="http://purl.org/dc/elements/1.1/"
   xmlns:cc="http://creativecommons.org/ns#"
   xmlns:rdf="http://www.w3.org/1999/02/22-rdf-syntax-ns#"
   xmlns:svg="http://www.w3.org/2000/svg"
   xmlns="http://www.w3.org/2000/svg"
   xmlns:xlink="http://www.w3.org/1999/xlink"
   xmlns:sodipodi="http://sodipodi.sourceforge.net/DTD/sodipodi-0.dtd"
   xmlns:inkscape="http://www.inkscape.org/namespaces/inkscape"
   width="67.17627mm"
   height="56.444443mm"
   viewBox="0 0 238.02615 199.99999"
   id="svg2"
   version="1.1"
   inkscape:version="0.91 r13725"
   sodipodi:docname="logo.svg"
   inkscape:export-filename="/Users/jameswilfong/GITLab/MyRepositories/lb-app/src/assets/logo.png"
   inkscape:export-xdpi="90"
   inkscape:export-ydpi="90">
  <defs
     id="defs4">
    <linearGradient
       id="linearGradient5584"
       osb:paint="gradient">
      <stop
         style="stop-color:#000000;stop-opacity:1;"
         offset="0"
         id="stop5586" />
      <stop
         style="stop-color:#000000;stop-opacity:0;"
         offset="1"
         id="stop5588" />
    </linearGradient>
    <filter
       inkscape:label="Fill Background"
       inkscape:menu="Fill and Transparency"
       inkscape:menu-tooltip="Adds a colorizable opaque background"
       style="color-interpolation-filters:sRGB"
       id="filter4183">
      <feFlood
         result="result1"
         flood-color="rgb(200,55,55)"
         flood-opacity="1"
         id="feFlood4185" />
      <feImage
         xlink:href=""
         result="result2"
         id="feImage4187" />
      <feBlend
         result="result4"
         in2="result1"
         mode="multiply"
         id="feBlend4189" />
      <feMerge
         result="fbSourceGraphic"
         id="feMerge4191">
        <feMergeNode
           in="result1"
           id="feMergeNode4193" />
        <feMergeNode
           in="SourceGraphic"
           id="feMergeNode4195" />
      </feMerge>
      <feColorMatrix
         result="fbSourceGraphicAlpha"
         in="fbSourceGraphic"
         values="0 0 0 -1 0 0 0 0 -1 0 0 0 0 -1 0 0 0 0 1 0"
         id="feColorMatrix4197" />
      <feFlood
         id="feFlood4199"
         result="result1"
         flood-color="rgb(200,55,55)"
         flood-opacity="1"
         in="fbSourceGraphic" />
      <feImage
         id="feImage4201"
         xlink:href=""
         result="result2" />
      <feBlend
         id="feBlend4203"
         in2="result1"
         result="result4"
         mode="multiply" />
      <feMerge
         id="feMerge4205"
         result="result3">
        <feMergeNode
           id="feMergeNode4207"
           in="result1" />
        <feMergeNode
           id="feMergeNode4209"
           in="fbSourceGraphic" />
      </feMerge>
    </filter>
  </defs>
  <sodipodi:namedview
     id="base"
     pagecolor="#ffffff"
     bordercolor="#666666"
     borderopacity="1.0"
     inkscape:pageopacity="0.0"
     inkscape:pageshadow="2"
     inkscape:zoom="2.4001103"
     inkscape:cx="211.35884"
     inkscape:cy="94.9846"
     inkscape:document-units="px"
     inkscape:current-layer="layer1"
     showgrid="false"
     inkscape:window-width="1821"
     inkscape:window-height="960"
     inkscape:window-x="25"
     inkscape:window-y="451"
     inkscape:window-maximized="0"
     inkscape:snap-midpoints="true"
     fit-margin-top="0"
     fit-margin-left="0"
     fit-margin-right="0"
     fit-margin-bottom="0" />
  <metadata
     id="metadata7">
    <rdf:RDF>
      <cc:Work
         rdf:about="">
        <dc:format>image/svg+xml</dc:format>
        <dc:type
           rdf:resource="http://purl.org/dc/dcmitype/StillImage" />
        <dc:title></dc:title>
      </cc:Work>
    </rdf:RDF>
  </metadata>
  <g
     inkscape:label="Layer 1"
     inkscape:groupmode="layer"
     id="layer1"
     transform="translate(-5.314108,-7.408695)">
    <flowRoot
       xml:space="preserve"
       id="flowRoot5592"
       style="font-style:normal;font-weight:normal;font-size:40px;line-height:125%;font-family:sans-serif;letter-spacing:0px;word-spacing:0px;fill:#ffffff;fill-opacity:1;stroke:none;stroke-width:1px;stroke-linecap:butt;stroke-linejoin:miter;stroke-opacity:1"><flowRegion
         id="flowRegion5594"><rect
           id="rect5596"
           width="545.71429"
           height="117.14286"
           x="108.57143"
           y="109.50506"
           style="fill:#ffffff;fill-opacity:1" /></flowRegion><flowPara
         id="flowPara5598" /></flowRoot>    <text
       xml:space="preserve"
       style="font-style:normal;font-weight:normal;font-size:40px;line-height:125%;font-family:sans-serif;letter-spacing:0px;word-spacing:0px;fill:#000000;fill-opacity:1;stroke:none;stroke-width:1px;stroke-linecap:butt;stroke-linejoin:miter;stroke-opacity:1"
       x="107.47554"
       y="185.51804"
       id="text5600"
       sodipodi:linespacing="125%"><tspan
         sodipodi:role="line"
         id="tspan5602"
         x="107.47554"
         y="185.51804" /></text>
    <flowRoot
       xml:space="preserve"
       id="flowRoot5616"
       style="font-style:normal;font-weight:normal;font-size:40px;line-height:125%;font-family:sans-serif;letter-spacing:0px;word-spacing:0px;fill:#000000;fill-opacity:1;stroke:none;stroke-width:1px;stroke-linecap:butt;stroke-linejoin:miter;stroke-opacity:1"><flowRegion
         id="flowRegion5618"><rect
           id="rect5620"
           width="62.420288"
           height="88.233192"
           x="147.36819"
           y="48.944324" /></flowRegion><flowPara
         id="flowPara5622">asfasdfsdfgsdfgfdg</flowPara></flowRoot>    <text
       xml:space="preserve"
       style="font-style:normal;font-weight:normal;font-size:40px;line-height:125%;font-family:sans-serif;letter-spacing:0px;word-spacing:0px;fill:#000000;fill-opacity:1;stroke:none;stroke-width:1px;stroke-linecap:butt;stroke-linejoin:miter;stroke-opacity:1"
       x="192.42345"
       y="307.54266"
       id="text5624"
       sodipodi:linespacing="125%"><tspan
         sodipodi:role="line"
         id="tspan5626"
         x="192.42345"
         y="307.54266" /></text>
    <flowRoot
       xml:space="preserve"
       id="flowRoot5628"
       style="font-style:normal;font-weight:normal;font-size:40px;line-height:125%;font-family:sans-serif;letter-spacing:0px;word-spacing:0px;fill:#000000;fill-opacity:1;stroke:none;stroke-width:1px;stroke-linecap:butt;stroke-linejoin:miter;stroke-opacity:1"><flowRegion
         id="flowRegion5630"><rect
           id="rect5632"
           width="138.45102"
           height="85.886566"
           x="135.63507"
           y="283.60706" /></flowRegion><flowPara
         id="flowPara5634" /></flowRoot>    <flowRoot
       xml:space="preserve"
       id="flowRoot5636"
       style="font-style:normal;font-weight:normal;font-size:40px;line-height:125%;font-family:sans-serif;letter-spacing:0px;word-spacing:0px;fill:#000000;fill-opacity:1;stroke:none;stroke-width:1px;stroke-linecap:butt;stroke-linejoin:miter;stroke-opacity:1"><flowRegion
         id="flowRegion5638"><rect
           id="rect5640"
           width="119.20867"
           height="64.297592"
           x="437.88068"
           y="114.18056" /></flowRegion><flowPara
         id="flowPara5642">xcvzxv</flowPara></flowRoot>    <text
       xml:space="preserve"
       style="font-style:normal;font-weight:normal;font-size:40px;line-height:125%;font-family:sans-serif;letter-spacing:0px;word-spacing:0px;fill:#000000;fill-opacity:0;stroke:none;stroke-width:1px;stroke-linecap:butt;stroke-linejoin:miter;stroke-opacity:1"
       x="271.27014"
       y="296.27884"
       id="text5644"
       sodipodi:linespacing="125%"><tspan
         sodipodi:role="line"
         id="tspan5646"
         x="271.27014"
         y="296.27884" /></text>
    <text
       xml:space="preserve"
       style="font-style:normal;font-variant:normal;font-weight:normal;font-stretch:normal;font-size:80px;line-height:125%;font-family:sans-serif;-inkscape-font-specification:'sans-serif, Normal';text-align:start;letter-spacing:0px;word-spacing:0px;writing-mode:lr-tb;text-anchor:start;fill:#000000;fill-opacity:1;stroke:none;stroke-width:1px;stroke-linecap:butt;stroke-linejoin:miter;stroke-opacity:1"
       x="-162.62708"
       y="172.05473"
       id="text4284"
       sodipodi:linespacing="125%"><tspan
         sodipodi:role="line"
         id="tspan4286"
         x="-162.62708"
         y="172.05473" /></text>
    <g
       id="g4294"
       transform="translate(771.88941,-207.40845)">
      <path
         transform="translate(-163.80554,-30.639885)"
         d="m -485.69336,245.45703 a 100,100 0 0 0 -100,100 100,100 0 0 0 100,100 100,100 0 0 0 100,-100 100,100 0 0 0 -100,-100 z"
         inkscape:href="#path4219"
         id="path4268"
         style="fill:#00000d;fill-opacity:1"
         xlink:href="#path4219"
         inkscape:original="M -485.69336 245.45703 A 100 100 0 0 0 -585.69336 345.45703 A 100 100 0 0 0 -485.69336 445.45703 A 100 100 0 0 0 -385.69336 345.45703 A 100 100 0 0 0 -485.69336 245.45703 z "
         inkscape:radius="0"
         sodipodi:type="inkscape:offset" />
      <path
         inkscape:connector-curvature="0"
         id="path4266"
         d="m -658.75813,373.67369 c -20.51044,-2.50292 -38.10566,-14.9809 -47.13787,-33.42868 -8.72899,-17.82849 -8.85414,-35.14 -0.38014,-52.58363 17.77566,-36.59098 67.07539,-45.80236 96.97624,-18.11945 8.17734,7.57078 13.30407,15.1831 16.51931,24.52836 14.54144,42.26544 -20.95867,85.09713 -65.97754,79.6034 z"
         style="fill:#cccccc;fill-opacity:1" />
      <path
         inkscape:connector-curvature="0"
         id="path4270"
         d="m -673.47992,411.34217 c -44.33982,-11.21491 -75.06413,-50.7443 -75.06413,-96.57627 0,-43.38522 26.61198,-80.04189 68.58262,-94.46912 10.72604,-3.68703 11.96104,-3.85011 29.46143,-3.8902 21.24659,-0.0487 27.74103,1.3073 44.19214,9.22692 25.39163,12.22361 44.79824,35.30057 52.658,62.61711 3.89124,13.52399 3.92149,39.419 0.0616,52.77775 -5.87067,20.31819 -18.94666,39.88233 -34.53097,51.66478 -12.00065,9.07306 -17.52527,12.05081 -30.56248,16.47304 -10.21704,3.46563 -12.68856,3.83082 -28.28298,4.179 -14.1497,0.31593 -18.70855,-0.0284 -26.51528,-2.00301 l 2e-5,0 z m 35.35372,-38.25101 c 28.25893,-5.94396 48.90597,-31.06515 48.90597,-59.50372 0,-26.89361 -18.34199,-50.5959 -45.13949,-58.33118 -4.05197,-1.16962 -10.90953,-1.96296 -16.82524,-1.94647 -18.1024,0.0505 -32.379,6.15937 -44.55246,19.06387 -8.11074,8.59781 -12.59788,16.63493 -15.41724,27.6145 -8.11449,31.60061 13.77103,65.96639 46.51317,73.03742 10.02656,2.16535 16.45689,2.18125 26.51529,0.0655 l 0,6e-5 z"
         style="fill:#ffffff;fill-opacity:1" />
      <path
         inkscape:connector-curvature="0"
         id="path4272"
         d="m -661.10612,372.91881 c -22.75843,-4.15105 -40.15959,-19.59233 -47.83416,-42.44663 -5.10739,-15.20946 -3.05546,-32.56029 5.5158,-46.64078 1.87412,-3.07872 3.17899,-5.59767 2.8997,-5.59767 -0.27929,0 2.24457,-2.58932 5.60856,-5.75403 13.74444,-12.93023 26.06445,-17.88061 45.30007,-18.20232 6.64356,-0.11111 12.07919,0.11176 12.07919,0.49528 -10e-6,0.38352 2.25378,1.37128 5.00843,2.19503 13.91524,4.16119 28.38954,15.96235 35.07165,28.59455 2.15357,4.07121 4.22493,7.66735 4.60304,7.99143 0.81874,0.70175 1.05822,2.73634 2.18458,18.56117 0.47289,6.64381 0.52109,12.07945 0.10712,12.07919 -0.41399,-2.6e-4 -1.07684,1.72302 -1.47301,3.82951 -2.26348,12.03509 -14.50145,28.50513 -27.10148,36.47355 -3.3146,2.0962 -6.2917,4.09382 -6.61577,4.43916 -0.32408,0.34535 -1.11954,0.64427 -1.76769,0.66428 -2.66245,0.0822 -8.83874,1.97414 -8.84281,2.70879 -0.005,0.91144 -20.34131,1.41237 -24.74322,0.60949 z"
         style="fill:#ffffff;fill-opacity:1" />
      <rect
         transform="matrix(-0.98523901,0.17118437,-0.0167242,-0.99986014,0,0)"
         y="-231.58188"
         x="540.39899"
         height="54.133389"
         width="240.6734"
         id="rect4282"
         style="fill:#0000ff;fill-opacity:1" />
      <text
         transform="matrix(0.98768834,-0.15643447,0.15643447,0.98768834,0,0)"
         sodipodi:linespacing="89.999998%"
         id="text4288"
         y="224.86397"
         x="-774.23706"
         style="font-style:italic;font-variant:normal;font-weight:normal;font-stretch:normal;font-size:40px;line-height:89.99999762%;font-family:sans-serif;-inkscape-font-specification:'sans-serif, Italic';text-align:start;letter-spacing:0px;word-spacing:0px;writing-mode:lr-tb;text-anchor:start;fill:#ffffff;fill-opacity:1;stroke:none;stroke-width:1px;stroke-linecap:butt;stroke-linejoin:miter;stroke-opacity:1"
         xml:space="preserve"><tspan
           style="font-style:italic;font-variant:normal;font-weight:normal;font-stretch:normal;font-size:40px;line-height:89.99999762%;font-family:sans-serif;-inkscape-font-specification:'sans-serif, Italic';text-align:start;writing-mode:lr-tb;text-anchor:start;fill:#ffffff"
           y="224.86397"
           x="-774.23706"
           id="tspan4290"
           sodipodi:role="line">Specials</tspan></text>
    </g>
  </g>
  <g
     inkscape:groupmode="layer"
     id="layer2"
     inkscape:label="plate"
     transform="translate(-5.314108,-7.408695)" />
</svg>
